<?xml version="1.2" encoding="UTF-8" standalone="no"?>
<svg
   xmlns:dc="http://purl.org/dc/elements/1.2/"
   xmlns:cc="http://creativecommons.org/ns#"
   xmlns:rdf="http://www.w3.org/1999/02/22-rdf-syntax-ns#"
   xmlns:svg="http://www.w3.org/2000/svg"
   xmlns="http://www.w3.org/2000/svg"
   xmlns:xlink="http://www.w3.org/1999/xlink"
   xmlns:sodipodi="http://sodipodi.sourceforge.net/DTD/sodipodi-0.dtd"
   xmlns:inkscape="http://www.inkscape.org/namespaces/inkscape"
   height="520.17639"
   width="397.52716"
   version="1.2"
   id="svg266"
   sodipodi:docname="Primula veris floral diagram.svg"
   inkscape:version="1.0.2 (e86c870879, 2021-01-15, custom)">
  <metadata
     id="metadata272">
    <rdf:RDF>
      <cc:Work
         rdf:about="">
        <dc:format>image/svg+xml</dc:format>
        <dc:type
           rdf:resource="http://purl.org/dc/dcmitype/StillImage" />
        <dc:title></dc:title>
      </cc:Work>
    </rdf:RDF>
  </metadata>
  <defs
     id="defs270" />
  <sodipodi:namedview
     pagecolor="#ffffff"
     bordercolor="#666666"
     borderopacity="1"
     objecttolerance="10"
     gridtolerance="10"
     guidetolerance="10"
     inkscape:pageopacity="0"
     inkscape:pageshadow="2"
     inkscape:window-width="1920"
     inkscape:window-height="1017"
     id="namedview268"
     showgrid="false"
     lock-margins="true"
     fit-margin-top="20"
     fit-margin-left="20"
     fit-margin-right="20"
     fit-margin-bottom="20"
     inkscape:zoom="0.61916667"
     inkscape:cx="52.419465"
     inkscape:cy="151.80766"
     inkscape:window-x="-8"
     inkscape:window-y="32"
     inkscape:window-maximized="1"
     inkscape:current-layer="vrstva" />
  <!-- květní diagram vygenerovaný webovou aplikací od Tomáše Keberta, která byla vytvořena v rámci bakalářské práce na Pedagogické fakultě Univerzity Karlovy -->
  <!-- floral diagram generated by a web application made by Tomáš Kebert, which was created as a part of bachelor thesis on the Faculty of Pedagogy, Charles University in Prague -->
  <!-- https://sites.google.com/site/kvetnidiagramy/ -->
  <g
     id="vrstva"
     inkscape:groupmode="layer"
     transform="translate(-102.65897,-42.5)">
    <!-- <circle cx="300" cy="300" r="150" style="fill: grey;" /> -->
    <!-- nadpisy klonovaných součástí -->
    <defs
       id="defs37">
      <pattern
         id="srafovani_pestik"
         height="7"
         width="10"
         patternUnits="userSpaceOnUse">
        <rect
           height="10"
           width="10"
           y="0"
           x="0"
           style="fill: ;"
           id="rect32" />
        <rect
           height="2"
           width="10"
           y="0"
           x="0"
           style="fill: #c8c637;"
           id="rect34" />
      </pattern>
    </defs>
    <g
       transform="translate(1.4225439,-1.0215551)"
       id="g52">
      <path
         d="M 189.81497,161.57764 A 141.53782,141.53782 0 0 1 293.45474,111.01101 L 300,104.23319 306.54526,111.01101 A 141.53782,141.53782 0 0 1 410.18503,161.57764 176.92227,176.92227 0 0 0 189.81497,161.57764 Z"
         style="fill:#7aa417;stroke:#3b570b;stroke-width:2;stroke-linecap:round;stroke-linejoin:round"
         id="path39" />
      <path
         d="M 392.40068,160.29186 A 134,134 0 0 1 468.75551,238.28592 L 477.22419,242.41637 472.8007,250.73574 A 134,134 0 0 1 456.87211,358.7145 167.5,167.5 0 0 0 392.40068,160.29186 Z"
         style="fill:#7aa417;stroke:#3b570b;stroke-width:2;stroke-linecap:round;stroke-linejoin:round"
         id="path41" />
      <path
         d="M 470.61412,349.36605 A 137.76891,137.76891 0 0 1 413.2952,445.85719 L 411.51248,455.10928 402.32825,453.00475 A 137.76891,137.76891 0 0 1 290.90902,466.4864 172.21113,172.21113 0 0 0 470.61412,349.36605 Z"
         style="fill:#7aa417;stroke:#3b570b;stroke-width:2;stroke-linecap:round;stroke-linejoin:round"
         id="path43" />
      <path
         d="M 307.77894,476.75117 A 141.53782,141.53782 0 0 1 194.21028,456.74251 L 184.93116,458.37867 183.61983,449.0481 A 141.53782,141.53782 0 0 1 129.49582,347.22091 176.92227,176.92227 0 0 0 307.77894,476.75117 Z"
         style="fill:#7aa417;stroke:#3b570b;stroke-width:2;stroke-linecap:round;stroke-linejoin:round"
         id="path45" />
      <path
         d="M 143.12789,358.7145 A 134,134 0 0 1 127.1993,250.73574 L 122.77581,242.41637 131.24449,238.28592 A 134,134 0 0 1 207.59932,160.29186 167.5,167.5 0 0 0 143.12789,358.7145 Z"
         style="fill:#7aa417;stroke:#3b570b;stroke-width:2;stroke-linecap:round;stroke-linejoin:round"
         id="path47" />
      <path
         d=""
         style="fill:#7aa417;stroke:#3b570b;stroke-width:2;stroke-linecap:round;stroke-linejoin:round"
         id="path49" />
      <path
         id="spojeni"
         d="M 410.18503,161.57764 A 176.92227,176.92227 0 0 0 392.40068,160.29186 M 456.87211,358.7145 A 167.5,167.5 0 0 0 470.61412,349.36605 M 290.90902,466.4864 A 172.21113,172.21113 0 0 0 307.77894,476.75117 M 129.49582,347.22091 A 176.92227,176.92227 0 0 0 143.12789,358.7145 M 207.59932,160.29186 A 167.5,167.5 0 0 0 189.81497,161.57764"
         style="fill:none;stroke:#3b570b;stroke-width:2;stroke-linecap:round;stroke-linejoin:round" />
    </g>
    <g
       transform="translate(3.3268489,-2.3504947)"
       id="g73">
      <path
         d="M 294.24037,169.13115 C 321.01838,159.12244 356.72529,159.49479 386.4123,181.06367 416.09932,202.63255 427.48748,236.47677 426.2435,265.03703 A 130.99554,130.99554 0 0 0 294.24037,169.13115 Z"
         style="fill:#ffd800;stroke:#977c00;stroke-width:2;stroke-linecap:round;stroke-linejoin:round"
         id="path54" />
      <path
         d="M 431.58237,252.71347 C 448.20931,276.83083 457.05979,312.30836 443.31506,347.53906 429.57033,382.76975 399.03285,402.88066 370.46651,409.36654 A 135,135 0 0 0 431.58237,252.71347 Z"
         style="fill:#ffd800;stroke:#977c00;stroke-width:2;stroke-linecap:round;stroke-linejoin:round"
         id="path56" />
      <path
         d="M 385.91056,411.5217 C 367.84377,434.58018 336.61557,453.60084 298.88962,450.97932 261.16367,448.35781 232.86633,425.20082 218.16237,399.86516 A 135,135 0 0 0 385.91056,411.5217 Z"
         style="fill:#ffd800;stroke:#977c00;stroke-width:2;stroke-linecap:round;stroke-linejoin:round"
         id="path58" />
      <path
         d="M 223.31876,415.94063 C 194.57791,407.33182 164.59772,384.93741 152.56501,347.90453 140.5323,310.87165 151.62368,275.13229 169.81538,251.27416 A 139.00446,139.00446 0 0 0 223.31876,415.94063 Z"
         style="fill:#ffd800;stroke:#977c00;stroke-width:2;stroke-linecap:round;stroke-linejoin:round"
         id="path60" />
      <path
         d="M 174.21089,266.77848 C 171.55184,237.60603 181.24185,202.34856 210.50088,178.38966 239.75991,154.43076 276.23599,151.8849 304.31097,160.24539 A 135,135 0 0 0 174.21089,266.77848 Z"
         style="fill:#ffd800;stroke:#977c00;stroke-width:2;stroke-linecap:round;stroke-linejoin:round"
         id="path62" />
      <path
         d=""
         style="fill:#ffd800;stroke:#977c00;stroke-width:2;stroke-linecap:round;stroke-linejoin:round"
         id="path64" />
      <path
         id="path66"
         d="M 426.2435,265.03703 A 130.99554,130.99554 0 0 0 431.58237,252.71347 M 370.46651,409.36654 A 135,135 0 0 0 385.91056,411.5217 M 218.16237,399.86516 A 135,135 0 0 0 223.31876,415.94063 M 169.81538,251.27416 A 139.00446,139.00446 0 0 0 174.21089,266.77848 M 304.31097,160.24539 A 135,135 0 0 0 294.24037,169.13115"
         style="fill:none;stroke:#977c00;stroke-width:2;stroke-linecap:round;stroke-linejoin:round" />
      <defs
         id="defs71">
        <clipPath
           id="orezspojeni">
          <path
             d="M 294.24037,169.13115 A 130.99554,130.99554 0 0 1 426.2435,265.03703 130.99554,130.99554 0 0 1 431.58237,252.71347 135,135 0 0 1 370.46651,409.36654 135,135 0 0 1 385.91056,411.5217 135,135 0 0 1 218.16237,399.86516 135,135 0 0 1 223.31876,415.94063 139.00446,139.00446 0 0 1 169.81538,251.27416 139.00446,139.00446 0 0 1 174.21089,266.77848 135,135 0 0 1 304.31097,160.24539 135,135 0 0 1 294.24037,169.13115 Z"
             transform="translate(3.3268489,-2.3504947)"
             id="path68" />
        </clipPath>
      </defs>
    </g>
    <!-- PESTÍK -->
    <defs
       id="defs87">
      <pattern
         id="tecky"
         width="12"
         height="12"
         patternUnits="userSpaceOnUse"
         patternTransform="scale(0.65)">
        <rect
           x="0"
           y="0"
           width="12"
           height="12"
           fill="#e4ed2f"
           id="rect75" />
        <circle
           id="kruh"
           cx="0"
           cy="0"
           r="1.75"
           fill="#848a16" />
        <use
           xlink:href="#kruh"
           x="6"
           y="6"
           id="use78" />
        <use
           xlink:href="#kruh"
           x="0"
           y="12"
           id="use80" />
        <use
           xlink:href="#kruh"
           x="12"
           y="0"
           id="use82" />
        <use
           xlink:href="#kruh"
           x="12"
           y="12"
           id="use84" />
      </pattern>
    </defs>
    <g
       transform="rotate(-90,165,-315)"
       id="g92">
      <g
         id="nektariumkal">
        <circle
           cx="0"
           cy="0"
           style="fill:#e4ed2f;stroke:#848a16;stroke-width:2"
           id="ellipse89"
           r="10" />
      </g>
    </g>
    <g
       transform="rotate(-90,205,-355)"
       id="g97">
      <g
         id="nektarium">
        <circle
           cx="0"
           cy="0"
           style="fill:#e4ed2f;stroke:#848a16;stroke-width:2"
           id="ellipse94"
           r="10" />
      </g>
    </g>
    <g
       transform="rotate(-90,5,-155)"
       id="g110">
      <g
         id="tycinky"
         transform="scale(1.2)">
        <path
           d="M -0.95867916,-5.7187011 C -3.1670135,-5.7187011 -4.9531756,-3.1539814 -4.9531756,0 -4.9531756,3.1539814 -3.1670135,5.7187011 -0.95867916,5.7187011 1.2496552,5.7187011 3.0358173,3.1539814 3.0358173,0 3.0358173,-3.1539814 1.2496552,-5.7187011 -0.95867916,-5.7187011 Z"
           style="fill:#977c00"
           id="path99" />
        <path
           d="M 4.7614398,-12.172207 C 1.8118865,-12.172207 -0.57520749,-9.7857048 -0.57520749,-6.8368827 -0.57520749,-3.8880606 1.8118865,-1.5015583 4.7614398,-1.5015583 7.7109931,-1.5015583 10.098087,-3.8880606 10.098087,-6.8368827 10.098087,-9.7857048 7.7109931,-12.172207 4.7614398,-12.172207 Z"
           style="fill:#ffd800;stroke:#977c00;stroke-width:1.66667;stroke-linejoin:round"
           id="path101" />
        <path
           d="M -5.2727354,-9.9038955 C -7.9487234,-9.9038955 -10.098087,-7.7229586 -10.098087,-5.0477919 -10.098087,-2.3726252 -7.9487234,-0.22363635 -5.2727354,-0.22363635 -2.5967473,-0.22363635 -0.41542763,-2.3726252 -0.41542763,-5.0477919 -0.41542763,-7.7229586 -2.5967473,-9.9038955 -5.2727354,-9.9038955 Z"
           style="fill:#ffd800;stroke:#977c00;stroke-width:1.66667;stroke-linejoin:round"
           id="path103" />
        <path
           d="M -5.2727354,0.22363635 C -7.9487234,0.22363635 -10.098087,2.3726252 -10.098087,5.0477919 -10.098087,7.7229586 -7.9487234,9.9038955 -5.2727354,9.9038955 -2.5967473,9.9038955 -0.41542763,7.7229586 -0.41542763,5.0477919 -0.41542763,2.3726252 -2.5967473,0.22363635 -5.2727354,0.22363635 Z"
           style="fill:#ffd800;stroke:#977c00;stroke-width:1.66667;stroke-linejoin:round"
           id="path105" />
        <path
           d="M 4.7614398,1.5015583 C 1.8118865,1.5015583 -0.57520749,3.8880606 -0.57520749,6.8368827 -0.57520749,9.7857048 1.8118865,12.172207 4.7614398,12.172207 7.7109931,12.172207 10.098087,9.7857048 10.098087,6.8368827 10.098087,3.8880606 7.7109931,1.5015583 4.7614398,1.5015583 Z"
           style="fill:#ffd800;stroke:#977c00;stroke-width:1.66667;stroke-linejoin:round"
           id="path107" />
      </g>
    </g>
    <g
       transform="rotate(-90,45,-195)"
       id="g117">
      <g
         id="staminodium"
         transform="scale(1.2)">
        <path
           d="M 12,0 A 12,12 0 1 1 -12,0 12,12 0 1 1 12,0 Z"
           style="fill:#ffd800;stroke:#977c00;stroke-width:1.66667;stroke-linejoin:round"
           id="path112" />
        <circle
           cx="0"
           cy="0"
           r="4.5"
           style="fill:#977c00"
           id="circle114" />
      </g>
    </g>
    <g
       transform="rotate(-90,85,-235)"
       id="g124">
      <g
         id="staminek"
         transform="scale(1.2)">
        <path
           d="M 12,0 A 12,12 0 1 1 -12,0 12,12 0 1 1 12,0 Z"
           style="fill:#e4ed2f;stroke:#848a16;stroke-width:1.66667;stroke-linejoin:round"
           id="path119" />
        <circle
           cx="0"
           cy="0"
           r="4.5"
           style="fill:#848a16"
           id="circle121" />
      </g>
    </g>
    <g
       transform="rotate(-90,125,-275)"
       id="g129">
      <g
         id="tycvyn"
         transform="scale(1.2)"
         style="fill:#977c00;stroke:none;stroke-width:1.66667;stroke-linecap:round;stroke-linejoin:round">
        <path
           transform="translate(-75,-75)"
           d="M 86,75 77.967,76.713 80.5,84.526 75,78.427 69.5,84.526 72.033,76.713 64,75 72.033,73.287 69.5,65.474 75,71.573 80.5,65.474 77.967,73.287 Z"
           id="path126" />
      </g>
    </g>
    <g
       clip-path="url(#orezspojeni)"
       id="g151">
      <line
         x1="354.37015"
         y1="225.16592"
         x2="476.33557"
         y2="57.294903"
         style="stroke:#977c00;stroke-width:2;stroke-linecap:round"
         id="line131" />
      <use
         xlink:href="#tycinky"
         x="354.37015"
         y="225.16592"
         transform="rotate(126,354.37014,225.16593)"
         id="use133"
         width="100%"
         height="100%" />
      <line
         x1="387.97272"
         y1="328.58408"
         x2="585.31696"
         y2="392.70511"
         style="stroke:#977c00;stroke-width:2;stroke-linecap:round"
         id="line135" />
      <use
         xlink:href="#tycinky"
         x="387.97272"
         y="328.58408"
         transform="rotate(-162,387.97273,328.58407)"
         id="use137"
         width="100%"
         height="100%" />
      <line
         x1="300"
         y1="392.5"
         x2="300"
         y2="600"
         style="stroke:#977c00;stroke-width:2;stroke-linecap:round"
         id="line139" />
      <use
         xlink:href="#tycinky"
         x="300"
         y="392.5"
         transform="rotate(-90,300,392.5)"
         id="use141"
         width="100%"
         height="100%" />
      <line
         x1="212.02727"
         y1="328.58408"
         x2="14.683045"
         y2="392.70511"
         style="stroke:#977c00;stroke-width:2;stroke-linecap:round"
         id="line143" />
      <use
         xlink:href="#tycinky"
         x="212.02727"
         y="328.58408"
         transform="rotate(-18,212.02727,328.58407)"
         id="use145"
         width="100%"
         height="100%" />
      <line
         x1="245.62987"
         y1="225.16592"
         x2="123.66442"
         y2="57.294903"
         style="stroke:#977c00;stroke-width:2;stroke-linecap:round"
         id="line147" />
      <use
         xlink:href="#tycinky"
         x="245.62987"
         y="225.16592"
         transform="rotate(54,245.62986,225.16593)"
         id="use149"
         width="100%"
         height="100%" />
    </g>
    <!-- VAJÍČKA II -->
    <g
       transform="rotate(-90,-35,-115)"
       id="g156">
      <g
         id="vajicko">
        <path
           d="M 14.814814,-3.75 C 11.851851,-3.75 0,0 0,0 0,0 11.851851,3.75 14.814814,3.75 17.777777,3.75 20,2.133038 20,0 20,-2.133038 17.777777,-3.75 14.814814,-3.75 Z"
           style="fill:#838224"
           id="path153" />
      </g>
    </g>
    <g
       transform="translate(-240,-200)"
       id="g161">
      <g
         id="vajickootoc"
         transform="scale(1,-1)">
        <use
           xlink:href="#vajicko"
           x="0"
           y="0"
           id="use158"
           width="100%"
           height="100%" />
      </g>
    </g>
    <g
       transform="translate(-240,-200)"
       id="g192">
      <g
         id="vajicka">
        <use
           xlink:href="#vajicko"
           x="-19.713451"
           y="-9.1925335"
           transform="rotate(-130,-19.713451,-9.1925333)"
           id="use163"
           width="100%"
           height="100%" />
        <use
           xlink:href="#vajicko"
           x="-16.104242"
           y="-11.276312"
           transform="rotate(-110,-16.104242,-11.276311)"
           id="use165"
           width="100%"
           height="100%" />
        <use
           xlink:href="#vajicko"
           x="-12"
           y="-12"
           transform="rotate(-90,-12,-12)"
           id="use167"
           width="100%"
           height="100%" />
        <use
           xlink:href="#vajicko"
           x="-7.8957582"
           y="-11.276312"
           transform="rotate(-70,-7.8957583,-11.276311)"
           id="use169"
           width="100%"
           height="100%" />
        <use
           xlink:href="#vajicko"
           x="-4.2865486"
           y="-9.1925335"
           transform="rotate(-50,-4.2865487,-9.1925333)"
           id="use171"
           width="100%"
           height="100%" />
        <use
           xlink:href="#vajicko"
           x="-1.6076951"
           y="-6"
           transform="rotate(-30,-1.6076952,-6)"
           id="use173"
           width="100%"
           height="100%" />
        <use
           xlink:href="#vajicko"
           x="-0.18230696"
           y="-2.0837781"
           transform="rotate(-10,-0.18230696,-2.0837781)"
           id="use175"
           width="100%"
           height="100%" />
        <use
           xlink:href="#vajickootoc"
           x="-0.18230696"
           y="2.0837781"
           transform="rotate(10,-0.18230696,2.0837781)"
           id="use177"
           width="100%"
           height="100%" />
        <use
           xlink:href="#vajickootoc"
           x="-1.6076951"
           y="6"
           transform="rotate(30,-1.6076952,6)"
           id="use179"
           width="100%"
           height="100%" />
        <use
           xlink:href="#vajickootoc"
           x="-4.2865486"
           y="9.1925335"
           transform="rotate(50,-4.2865487,9.1925333)"
           id="use181"
           width="100%"
           height="100%" />
        <use
           xlink:href="#vajickootoc"
           x="-7.8957582"
           y="11.276312"
           transform="rotate(70,-7.8957583,11.276311)"
           id="use183"
           width="100%"
           height="100%" />
        <use
           xlink:href="#vajickootoc"
           x="-12"
           y="12"
           transform="rotate(90,-12,12)"
           id="use185"
           width="100%"
           height="100%" />
        <use
           xlink:href="#vajickootoc"
           x="-16.104242"
           y="11.276312"
           transform="rotate(110,-16.104242,11.276311)"
           id="use187"
           width="100%"
           height="100%" />
        <use
           xlink:href="#vajickootoc"
           x="-19.713451"
           y="9.1925335"
           transform="rotate(130,-19.713451,9.1925333)"
           id="use189"
           width="100%"
           height="100%" />
      </g>
    </g>
    <g
       transform="rotate(-90,-75,-75)"
       id="g207">
      <g
         id="pesnes">
        <path
           style="fill:#c8c637;stroke:none"
           d="M -13.46875,0.5 C -17.133671,0.49999981 -19.899825,3.4320928 -18.03125,6.90625 -15.690664,11.257996 -7.4037718,14 0,14 11.045695,14 20,7.7319864 20,0 20,-7.7319864 11.045695,-14 0,-14 -7.4037718,-14 -15.690664,-11.257996 -18.03125,-6.90625 -19.899825,-3.4320928 -17.133671,-0.49999981 -13.46875,-0.5 Z"
           id="path194" />
        <path
           style="fill:none;stroke:none;stroke-width:6;stroke-linecap:round;stroke-linejoin:round"
           d="M -13.46875,0.5 C -17.133671,0.49999981 -19.899825,3.4320928 -18.03125,6.90625 -15.690664,11.257996 -7.4037718,14 0,14 11.045695,14 20,7.7319864 20,0 20,-7.7319864 11.045695,-14 0,-14 -7.4037718,-14 -15.690664,-11.257996 -18.03125,-6.90625 -19.899825,-3.4320928 -17.133671,-0.49999981 -13.46875,-0.5 Z"
           id="path196" />
        <path
           style="fill:none;stroke:#838224;stroke-width:2;stroke-linecap:round;stroke-linejoin:round"
           d="M -13.46875,0.5 C -17.133671,0.49999981 -19.899825,3.4320928 -18.03125,6.90625 -15.690664,11.257996 -7.4037718,14 0,14 11.045695,14 20,7.7319864 20,0 20,-7.7319864 11.045695,-14 0,-14 -7.4037718,-14 -15.690664,-11.257996 -18.03125,-6.90625 -19.899825,-3.4320928 -17.133671,-0.49999981 -13.46875,-0.5 Z"
           id="path198" />
        <use
           xlink:href="#vajicka"
           x="-7"
           y="0"
           id="use200"
           width="100%"
           height="100%" />
        <path
           style="fill:none;stroke:#838224;stroke-width:3;stroke-linecap:round"
           d="M -13,0 H -8"
           id="path202" />
        <path
           style="fill:none;stroke:#838224;stroke-width:3;stroke-linecap:round"
           d="M -6.8674175,-4.5 C -6.8674175,-4.5 -8,-1.5467796 -8,0 -8,1.5467796 -6.8674175,4.5 -6.8674175,4.5"
           id="path204" />
      </g>
    </g>
    <path
       d="M 300,339.37598 A 17.144163,23.14462 126 1 1 262.55122,312.16785 17.144165,23.144623 -162 1 1 276.85538,268.14416 17.144163,23.14462 -90 1 1 323.14462,268.14416 17.144165,23.144623 -18 1 1 337.44878,312.16785 17.144163,23.14462 54 1 1 300,339.37598 Z"
       style="fill:#c8c637;stroke:#838224;stroke-width:2;stroke-linejoin:round"
       id="path209" />
    <defs
       id="defs214">
      <clipPath
         clipPathUnits="userSpaceOnUse"
         id="orez">
        <path
           d="M 300,339.37598 A 17.144163,23.14462 126 1 1 262.55122,312.16785 17.144165,23.144623 -162 1 1 276.85538,268.14416 17.144163,23.14462 -90 1 1 323.14462,268.14416 17.144165,23.144623 -18 1 1 337.44878,312.16785 17.144163,23.14462 54 1 1 300,339.37598 Z"
           style="fill:#ffffff"
           id="path211" />
      </clipPath>
    </defs>
    <circle
       cx="300"
       cy="300"
       r="12"
       style="fill:#838224"
       id="circle216" />
    <g
       clip-path="url(#orez)"
       id="g218" />
    <g
       clip-path="url(#orez)"
       id="g248">
      <use
         xlink:href="#vajicko"
         x="292.94656"
         y="309.70819"
         transform="rotate(126,292.94658,309.7082)"
         id="use220"
         width="100%"
         height="100%" />
      <use
         xlink:href="#vajicko"
         x="289.43286"
         y="305.68643"
         transform="rotate(151.71429,289.43285,305.68642)"
         id="use222"
         width="100%"
         height="100%" />
      <use
         xlink:href="#vajicko"
         x="288.01208"
         y="300.53839"
         transform="rotate(177.42857,288.01208,300.53838)"
         id="use224"
         width="100%"
         height="100%" />
      <use
         xlink:href="#vajicko"
         x="288.96567"
         y="295.28369"
         transform="rotate(-156.85714,288.96567,295.2837)"
         id="use226"
         width="100%"
         height="100%" />
      <use
         xlink:href="#vajicko"
         x="292.10474"
         y="290.96313"
         transform="rotate(-131.14286,292.10474,290.96314)"
         id="use228"
         width="100%"
         height="100%" />
      <use
         xlink:href="#vajicko"
         x="296.80756"
         y="288.43243"
         transform="rotate(-105.42857,296.80756,288.43245)"
         id="use230"
         width="100%"
         height="100%" />
      <use
         xlink:href="#vajicko"
         x="302.14267"
         y="288.19284"
         transform="rotate(-79.714286,302.14268,288.19284)"
         id="use232"
         width="100%"
         height="100%" />
      <use
         xlink:href="#vajicko"
         x="307.05344"
         y="290.29181"
         transform="rotate(-54,307.05342,290.2918)"
         id="use234"
         width="100%"
         height="100%" />
      <use
         xlink:href="#vajicko"
         x="310.56714"
         y="294.31357"
         transform="rotate(-28.285714,310.56715,294.31358)"
         id="use236"
         width="100%"
         height="100%" />
      <use
         xlink:href="#vajicko"
         x="311.98792"
         y="299.46161"
         transform="rotate(-2.5714286,311.98792,299.46162)"
         id="use238"
         width="100%"
         height="100%" />
      <use
         xlink:href="#vajicko"
         x="311.03433"
         y="304.71631"
         transform="rotate(23.142857,311.03433,304.7163)"
         id="use240"
         width="100%"
         height="100%" />
      <use
         xlink:href="#vajicko"
         x="307.89526"
         y="309.03687"
         transform="rotate(48.857143,307.89526,309.03686)"
         id="use242"
         width="100%"
         height="100%" />
      <use
         xlink:href="#vajicko"
         x="303.19244"
         y="311.56757"
         transform="rotate(74.571429,303.19244,311.56755)"
         id="use244"
         width="100%"
         height="100%" />
      <use
         xlink:href="#vajicko"
         x="297.85733"
         y="311.80716"
         transform="rotate(100.28571,297.85732,311.80716)"
         id="use246"
         width="100%"
         height="100%" />
    </g>
    <path
       d=""
       transform="rotate(90,-26.25,326.25)"
       style="fill:#838224;stroke:none"
       id="path250" />
    <path
       d=""
       transform="rotate(162,99.992334,177.91526)"
       style="fill:#838224;stroke:none"
       id="path252" />
    <path
       d=""
       transform="rotate(-126,200.17882,60.19614)"
       style="fill:#838224;stroke:none"
       id="path254" />
    <path
       d=""
       transform="rotate(-54,418.14158,-195.9101)"
       style="fill:#838224;stroke:none"
       id="path256" />
    <path
       d=""
       transform="rotate(18,-823.31273,1262.7987)"
       style="fill:#838224;stroke:none"
       id="path258" />
    <circle
       id="osa"
       cx="300"
       cy="75.5"
       r="12"
       style="fill:#3b570b;stroke:#3b570b;stroke-width:2" />
    <g
       id="g263">
      <path
         d="M 411.46862,473.83037 A 165.2,165.2 0 0 1 312.99384,525.57303 L 300,541.67647 287.00616,525.57303 A 165.2,165.2 0 0 1 188.53138,473.83037 206.5,206.5 0 0 0 411.46862,473.83037 Z"
         style="fill:#7aa417;stroke:#3b570b;stroke-width:2;stroke-linecap:round;stroke-linejoin:round"
         id="path261" />
    </g>
  </g>
</svg>
